<svg width="24" height="24" viewBox="0 0 24 24" fill="none" xmlns="http://www.w3.org/2000/svg">
<path d="M16 14C17.3261 14 18.5979 14.5268 19.5355 15.4645C20.4732 16.4021 21 17.6739 21 19V20C21 20.5304 20.7893 21.0391 20.4142 21.4142C20.0391 21.7893 19.5304 22 19 22H5C4.46957 22 3.96086 21.7893 3.58579 21.4142C3.21071 21.0391 3 20.5304 3 20V19C3 17.6739 3.52678 16.4021 4.46447 15.4645C5.40215 14.5268 6.67392 14 8 14H16ZM12 2C13.3261 2 14.5979 2.52678 15.5355 3.46447C16.4732 4.40215 17 5.67392 17 7C17 8.32608 16.4732 9.59785 15.5355 10.5355C14.5979 11.4732 13.3261 12 12 12C10.6739 12 9.40215 11.4732 8.46447 10.5355C7.52678 9.59785 7 8.32608 7 7C7 5.67392 7.52678 4.40215 8.46447 3.46447C9.40215 2.52678 10.6739 2 12 2Z" fill="white"/>
<path d="M20.8843 8.13907C20.7764 8.04917 20.6404 7.99995 20.5 8C20.3409 8 20.1883 8.06321 20.0757 8.17574C19.9632 8.28826 19.9 8.44087 19.9 8.6V10.4H18.1C17.9409 10.4 17.7883 10.4632 17.6757 10.5757C17.5632 10.6883 17.5 10.8409 17.5 11L17.5096 11.108C17.5349 11.2461 17.6078 11.371 17.7157 11.4609C17.8236 11.5508 17.9596 11.6 18.1 11.6H19.9V13.4L19.9096 13.508C19.9363 13.6555 20.0173 13.7877 20.1366 13.8785C20.2559 13.9693 20.4049 14.0122 20.5542 13.9986C20.7035 13.9851 20.8424 13.9161 20.9434 13.8053C21.0444 13.6945 21.1003 13.5499 21.1 13.4V11.6H22.9C23.0591 11.6 23.2117 11.5368 23.3243 11.4243C23.4368 11.3117 23.5 11.1591 23.5 11L23.4904 10.892C23.4651 10.7539 23.3922 10.629 23.2843 10.5391C23.1764 10.4492 23.0404 10.4 22.9 10.4H21.1V8.6L21.0904 8.492C21.0651 8.35386 20.9922 8.22897 20.8843 8.13907Z" fill="white"/>
</svg>
